<?xml version="1.0" encoding="UTF-8"?>
<svg width="64px" height="64px" viewBox="0 0 64 64" version="1.1" xmlns="http://www.w3.org/2000/svg" xmlns:xlink="http://www.w3.org/1999/xlink">
    <!-- Generator: Sketch 51.1 (57501) - http://www.bohemiancoding.com/sketch -->
    <title>Group 20</title>
    <desc>Created with Sketch.</desc>
    <defs></defs>
    <animateTransform
        attributeName="transform"
        type="scale"
        values="1;.97;1;" dur="1.5s"
        begin="0s"
        alcMode=".5 0 .5 1"
        repeatCount="indefinite" />
    <g id="Page-1" stroke="none" stroke-width="1" fill="none" fill-rule="evenodd">
    
        <g id="signup-1" transform="translate(-156.000000, -50.000000)">
            <g id="Group-20" transform="translate(156.000000, 50.000000)">
                <g id="Group-3" fill="#2D343B">
                    <path d="M31.9339852,64.0003556 L6.08331852,64.0003556 C2.72865185,64.0003556 -0.000237037037,61.2714667 -0.000237037037,57.9168 L-0.000237037037,32.0655407 C-0.000237037037,14.4572444 14.3256889,0.131318519 31.9339852,0.131318519 C49.5428741,0.131318519 63.8688,14.4572444 63.8688,32.0655407 C63.8688,49.6744296 49.5428741,64.0003556 31.9339852,64.0003556" id="Fill-1"></path>
                </g>
                <path d="M39.5416296,37.9606312 L41.864,39.0592 C42.170963,39.2042275 42.5573333,39.1631266 42.8151111,38.9646679 C43.3004444,38.5912367 43.7597037,38.1684844 44.1952593,37.6975853 C44.7623704,37.0804844 45.2571852,36.4293284 45.6779259,35.7429431 C46.0998519,35.0565578 46.4358519,34.3490349 46.6853333,33.6203743 C46.9348148,32.8917138 47.0598519,32.1841908 47.0598519,31.4978055 L47.0598519,28.9695119 C47.0598519,28.6136954 46.7048889,28.3248147 46.2681481,28.3248147 L41.941037,28.3248147 C41.5037037,28.3248147 41.1487407,28.6136954 41.1487407,28.9695119 L41.1487407,31.4978055 C41.1487407,32.8007046 40.9259259,33.9421358 40.4779259,34.9232734 C40.1265185,35.693622 39.717037,36.416411 39.2482963,37.0916404 C39.0361481,37.3975486 39.1688889,37.7844844 39.5416296,37.9606312" id="Fill-4" fill="#FFFFFF">
                    <animate id="animation1"
                        attributeName="opacity"
                        values="1;.6;1;" dur="1.5s"
                        begin="animation2.begin + 1s"
                        alcMode=".5 0 .5 1"
                        repeatCount="indefinite" />
                </path>
                <path d="M28.3732148,37.9606312 L30.6949926,39.0592 C31.0025481,39.2042275 31.3883259,39.1631266 31.6461037,38.9646679 C32.131437,38.5912367 32.5912889,38.1684844 33.0256593,37.6975853 C33.593363,37.0804844 34.0881778,36.4293284 34.5095111,35.7429431 C34.9308444,35.0565578 35.2668444,34.3490349 35.5157333,33.6203743 C35.7658074,32.8917138 35.8902519,32.1841908 35.8902519,31.4978055 L35.8902519,28.9695119 C35.8902519,28.6136954 35.5352889,28.3248147 35.0985481,28.3248147 L30.7720296,28.3248147 C30.3346963,28.3248147 29.9797333,28.6136954 29.9797333,28.9695119 L29.9797333,31.4978055 C29.9797333,32.8007046 29.7563259,33.9421358 29.3083259,34.9232734 C28.9575111,35.693622 28.5480296,36.416411 28.0792889,37.0916404 C27.8671407,37.3975486 27.9998815,37.7844844 28.3732148,37.9606312" id="Fill-6" fill="#FFFFFF">
                    <animate id="animation2"
                        attributeName="opacity"
                        values="1;.6;1;" dur="1.5s"
                        begin="animation3.begin + 1s"
                        alcMode=".5 0 .5 1"
                        repeatCount="indefinite" />
                </path>
                <path d="M17.2036741,37.9606312 L19.5254519,39.0592 C19.8330074,39.2042275 20.2187852,39.1631266 20.4771556,38.9646679 C20.9624889,38.5912367 21.4217481,38.1684844 21.8561185,37.6975853 C22.4238222,37.0804844 22.918637,36.4293284 23.3399704,35.7429431 C23.7613037,35.0565578 24.0978963,34.3490349 24.3461926,33.6203743 C24.5962667,32.8917138 24.7207111,32.1841908 24.7207111,31.4978055 L24.7207111,28.9695119 C24.7207111,28.6136954 24.3657481,28.3248147 23.9290074,28.3248147 L19.6024889,28.3248147 C19.1651556,28.3248147 18.8101926,28.6136954 18.8101926,28.9695119 L18.8101926,31.4978055 C18.8101926,32.8007046 18.5873778,33.9421358 18.1387852,34.9232734 C17.7879704,35.693622 17.3784889,36.416411 16.9103407,37.0916404 C16.6976,37.3975486 16.8303407,37.7844844 17.2036741,37.9606312" id="Fill-8" fill="#FFFFFF">
                    <animate id="animation3"
                        attributeName="opacity"
                        values="1;.6;1;" dur="1.5s"
                        begin="0s"
                        alcMode=".5 0 .5 1"
                        repeatCount="indefinite" />
                </path>
            </g>
        </g>
    </g>
</svg>