<?xml version="1.0" encoding="UTF-8"?>
<svg width="38px" height="38px" viewBox="0 0 38 38" version="1.1" xmlns="http://www.w3.org/2000/svg" xmlns:xlink="http://www.w3.org/1999/xlink">
    <!-- Generator: Sketch 51 (57462) - http://www.bohemiancoding.com/sketch -->
    <title>behance</title>
    <desc>Created with Sketch.</desc>
    <defs></defs>
    <g id="Page-1" stroke="none" stroke-width="1" fill="none" fill-rule="evenodd">
        <g id="Desktop-HD" transform="translate(-1247.000000, -949.000000)">
            <g id="Group-2" transform="translate(1189.000000, 949.000000)">
                <g id="behance" transform="translate(58.000000, 0.000000)">
                    <g>
                        <path d="M37.7497922,18.8001299 C37.7497922,29.147974 29.3611688,37.5365974 19.0133247,37.5365974 C8.66548052,37.5365974 0.276857143,29.147974 0.276857143,18.8001299 C0.276857143,8.45228571 8.66548052,0.0636623377 19.0133247,0.0636623377 C29.3611688,0.0636623377 37.7497922,8.45228571 37.7497922,18.8001299" id="Behance-Circle" fill="#DBDBDB"></path>
                        <path d="M17.6803636,18.2937922 C18.0554286,18.1052727 18.3391948,17.8955325 18.5326494,17.667039 C18.8781039,17.2579221 19.0493506,16.7155584 19.0493506,16.0434026 C19.0493506,15.39 18.8781039,14.8303636 18.5370909,14.3615325 C17.9685714,13.5980779 17.0042597,13.2072208 15.6416883,13.186987 L10.2427273,13.186987 L10.2427273,24.2084675 L15.276987,24.2084675 C15.8445195,24.2084675 16.3696104,24.1601039 16.8552208,24.0604156 C17.3413247,23.9597403 17.7612987,23.7761558 18.1171169,23.5067013 C18.4339481,23.2717922 18.6974805,22.9825974 18.9077143,22.6396104 C19.2408312,22.1214286 19.4066494,21.5351429 19.4066494,20.8817403 C19.4066494,20.2485714 19.2610649,19.7096623 18.9718701,19.266987 C18.6797143,18.8233247 18.2498701,18.4995844 17.6803636,18.2937922 L17.6803636,18.2937922 Z M12.4699221,15.1008052 L14.9019221,15.1008052 C15.4363896,15.1008052 15.8765974,15.1585455 16.223039,15.273039 C16.6227792,15.4383636 16.8226494,15.7769091 16.8226494,16.2921299 C16.8226494,16.7535584 16.6706494,17.0763117 16.3686234,17.2589091 C16.0646234,17.4415065 15.6703117,17.5328052 15.1866753,17.5328052 L12.4699221,17.5328052 L12.4699221,15.1008052 L12.4699221,15.1008052 Z M16.3143377,22.1016883 C16.0453766,22.2304935 15.6668571,22.2956364 15.1822338,22.2956364 L12.4699221,22.2956364 L12.4699221,19.3563117 L15.2207273,19.3563117 C15.6989351,19.3602597 16.072026,19.4234286 16.338026,19.5428571 C16.8127792,19.758026 17.0486753,20.1513506 17.0486753,20.7257922 C17.0486753,21.4033766 16.8043896,21.8603636 16.3143377,22.1016883 Z M21.7947273,13.7007273 L26.5822338,13.7007273 L26.5822338,15.0721818 L21.7947273,15.0721818 L21.7947273,13.7007273 Z M27.587013,17.4296623 C27.928026,17.9142857 28.1471429,18.4763896 28.2468312,19.114987 C28.3055584,19.4880779 28.3287532,20.0294545 28.3193766,20.7331948 L22.3000779,20.7331948 C22.3361039,21.5499481 22.6208571,22.1234026 23.1651948,22.4515844 C23.4943636,22.6563896 23.8911429,22.759039 24.3565195,22.759039 C24.8465714,22.759039 25.2472987,22.6341818 25.5547532,22.3859481 C25.7235325,22.2502338 25.8725714,22.0636883 25.9998961,21.8248312 L28.2053766,21.8248312 C28.1471429,22.306987 27.8791688,22.799013 27.4054026,23.2979481 C26.6651429,24.0895325 25.6292727,24.4863117 24.2972987,24.4863117 C23.1967792,24.4863117 22.2265455,24.1527013 21.3880779,23.4835065 C20.5451688,22.8157922 20.1261818,21.7271169 20.1261818,20.2214286 C20.1261818,18.809013 20.5056883,17.7257662 21.2637143,16.9716883 C22.0237143,16.2195844 23.0067792,15.8410649 24.2173506,15.8410649 C24.9368831,15.8410649 25.5843636,15.9688831 26.1602857,16.224026 C26.7376883,16.4776883 27.2129351,16.8803896 27.587013,17.4296623 Z M22.3528831,19.3267013 C22.4318442,18.7961818 22.6243117,18.3757143 22.9292987,18.0652987 C23.2342857,17.7548831 23.6656104,17.5999221 24.2183377,17.5999221 C24.7286234,17.5999221 25.155013,17.7455065 25.5014545,18.0381558 C25.8439481,18.3327792 26.0374026,18.7606494 26.0763896,19.3267013 L22.3528831,19.3267013 L22.3528831,19.3267013 Z" id="Behance" fill="#FFFFFF"></path>
                    </g>
                </g>
            </g>
        </g>
    </g>
</svg>