<?xml version="1.0" encoding="UTF-8"?>
<svg width="38px" height="38px" viewBox="0 0 38 38" version="1.1" xmlns="http://www.w3.org/2000/svg" xmlns:xlink="http://www.w3.org/1999/xlink">
    <!-- Generator: Sketch 51 (57462) - http://www.bohemiancoding.com/sketch -->
    <title>facebook</title>
    <desc>Created with Sketch.</desc>
    <defs></defs>
    <g id="Page-1" stroke="none" stroke-width="1" fill="none" fill-rule="evenodd">
        <g id="Desktop-HD" transform="translate(-1189.000000, -949.000000)" fill="#DBDBDB">
            <g id="Group-2" transform="translate(1189.000000, 949.000000)">
                <g id="facebook">
                    <g id="Facebook">
                        <path d="M18.985,0 C8.5,0 0,8.5 0,18.985 C0,29.465 8.5,37.965 18.985,37.965 C29.465,37.965 37.965,29.465 37.965,18.985 C37.965,8.5 29.465,0 18.985,0 L18.985,0 Z M28.22,27.01 C28.22,27.57 27.945,27.935 27.39,27.935 L22.72,27.935 L22.72,20.935 L25.095,20.935 L25.455,17.935 L22.72,17.935 L22.72,16.375 C22.72,15.575 22.935,14.935 24.085,14.935 L25.72,14.935 L25.72,12.55 C25.22,12.515 24.445,12.44 23.43,12.44 C21.32,12.44 19.72,13.73 19.72,16.1 L19.72,17.935 L17.22,17.935 L17.22,20.935 L19.72,20.935 L19.72,27.935 L11.06,27.935 C10.5,27.935 10.22,27.57 10.22,27.01 L10.22,10.68 C10.22,10.12 10.5,9.435 11.06,9.435 L27.39,9.435 C27.945,9.435 28.22,10.12 28.22,10.68 L28.22,27.01 L28.22,27.01 Z"></path>
                    </g>
                </g>
            </g>
        </g>
    </g>
</svg>