<?xml version="1.0" encoding="UTF-8"?>
<svg width="38px" height="38px" viewBox="0 0 38 38" version="1.1" xmlns="http://www.w3.org/2000/svg" xmlns:xlink="http://www.w3.org/1999/xlink">
    <!-- Generator: Sketch 51 (57462) - http://www.bohemiancoding.com/sketch -->
    <title>instagram</title>
    <desc>Created with Sketch.</desc>
    <defs></defs>
    <g id="Page-1" stroke="none" stroke-width="1" fill="none" fill-rule="evenodd">
        <g id="Desktop-HD" transform="translate(-1365.000000, -949.000000)">
            <g id="Group-2" transform="translate(1189.000000, 949.000000)">
                <g id="instagram" transform="translate(176.000000, 0.000000)">
                    <g>
                        <path d="M37.7492987,18.8001299 C37.7492987,29.147974 29.3611688,37.5365974 19.0133247,37.5365974 C8.66548052,37.5365974 0.276857143,29.147974 0.276857143,18.8001299 C0.276857143,8.45228571 8.66548052,0.0636623377 19.0133247,0.0636623377 C29.3611688,0.0636623377 37.7492987,8.45228571 37.7492987,18.8001299" id="Instagram-Circle" fill="#DBDBDB"></path>
                        <path d="M26.3808831,9.70480519 L12.5888571,9.70480519 C11.400987,9.70480519 10.4381558,10.6651688 10.4381558,11.8505714 L10.4381558,25.6524675 C10.4381558,26.8373766 11.400987,27.7982338 12.5888571,27.7982338 L26.3808831,27.7982338 C27.5687532,27.7982338 28.5315844,26.8373766 28.5315844,25.6524675 L28.5315844,11.8505714 C28.5315844,10.6651688 27.5687532,9.70480519 26.3808831,9.70480519 L26.3808831,9.70480519 Z M23.443039,12.5316104 C23.443039,12.2197143 23.6962078,11.9660519 24.0081039,11.9660519 L25.7042857,11.9660519 C26.0166753,11.9660519 26.2698442,12.2197143 26.2698442,12.5316104 L26.2698442,14.2277922 C26.2698442,14.5401818 26.0166753,14.7933506 25.7042857,14.7933506 L24.0081039,14.7933506 C23.6962078,14.7933506 23.443039,14.5401818 23.443039,14.2277922 L23.443039,12.5316104 L23.443039,12.5316104 Z M19.5058442,15.3011688 C21.4275584,15.3011688 22.9855584,16.8557143 22.9855584,18.7724935 C22.9855584,20.6897662 21.4275584,22.2438182 19.5058442,22.2438182 C17.5846234,22.2438182 16.0266234,20.6897662 16.0266234,18.7724935 C16.0266234,16.8557143 17.5846234,15.3011688 19.5058442,15.3011688 L19.5058442,15.3011688 Z M26.8354026,25.5364935 C26.8354026,25.8483896 26.5822338,26.1020519 26.2698442,26.1020519 L12.6998961,26.1020519 C12.3875065,26.1020519 12.1343377,25.8483896 12.1343377,25.5364935 L12.1343377,17.0550909 L14.3960779,17.0550909 C14.1014545,17.479013 14.0017662,18.2701039 14.0017662,18.7724935 C14.0017662,21.8001558 16.4712727,24.2637403 19.5058442,24.2637403 C22.5409091,24.2637403 25.0104156,21.8001558 25.0104156,18.7724935 C25.0104156,18.2701039 24.9388571,17.4908571 24.5736623,17.0550909 L26.8354026,17.0550909 L26.8354026,25.5364935 L26.8354026,25.5364935 Z" id="Instagram" fill="#FFFFFF"></path>
                    </g>
                </g>
            </g>
        </g>
    </g>
</svg>