<?xml version="1.0" encoding="UTF-8"?>
<svg width="38px" height="38px" viewBox="0 0 38 38" version="1.1" xmlns="http://www.w3.org/2000/svg" xmlns:xlink="http://www.w3.org/1999/xlink">
    <!-- Generator: Sketch 51 (57462) - http://www.bohemiancoding.com/sketch -->
    <title>linkedin</title>
    <desc>Created with Sketch.</desc>
    <defs></defs>
    <g id="Page-1" stroke="none" stroke-width="1" fill="none" fill-rule="evenodd">
        <g id="Desktop-HD" transform="translate(-1306.000000, -949.000000)">
            <g id="Group-2" transform="translate(1189.000000, 949.000000)">
                <g id="linkedin" transform="translate(117.000000, 0.000000)">
                    <g>
                        <path d="M37.7497922,18.8001299 C37.7497922,29.147974 29.3611688,37.5365974 19.0133247,37.5365974 C8.66548052,37.5365974 0.276857143,29.147974 0.276857143,18.8001299 C0.276857143,8.45228571 8.66548052,0.0636623377 19.0133247,0.0636623377 C29.3611688,0.0636623377 37.7497922,8.45228571 37.7497922,18.8001299" id="Linkedin-Circle" fill="#DBDBDB"></path>
                        <path d="M10.6977403,15.9678961 L14.2460519,15.9678961 L14.2460519,27.210961 L10.6977403,27.210961 L10.6977403,15.9678961 Z M23.940987,15.8598182 C26.4628052,15.8598182 28.4442338,17.477039 28.4442338,20.9597143 L28.4442338,27.210961 L24.4206753,27.210961 L24.4206753,21.393013 C24.4206753,19.8700519 23.7914545,18.8302338 22.4071688,18.8302338 C21.3485974,18.8302338 20.7598442,19.532 20.4859481,20.2081039 C20.3832987,20.4509091 20.3990909,20.788961 20.3990909,21.127013 L20.3990909,27.210961 L16.413039,27.210961 C16.413039,27.210961 16.4643636,16.9050649 16.413039,15.9678961 L20.3990909,15.9678961 L20.3990909,17.7326753 C20.6344935,16.9608312 21.9082338,15.8598182 23.940987,15.8598182 Z M12.4062597,10.6607273 C13.7155325,10.6607273 14.5204416,11.5001818 14.5461039,12.6095844 C14.5461039,13.6987532 13.7155325,14.5614026 12.3815844,14.5614026 L12.3559221,14.5614026 C11.0718182,14.5614026 10.2387792,13.7022078 10.2387792,12.6125455 C10.2387792,11.5021558 11.096,10.6607273 12.4062597,10.6607273 Z" id="Linkedin" fill="#FFFFFF"></path>
                    </g>
                </g>
            </g>
        </g>
    </g>
</svg>